# xmcd
# 
# Track frame offsets:
#     150
#     10817
#     32097
#     58779
# 
# Disc length: 1014
# 
# Revision: 0
# Processed by: cddbd v1.5.2PL0 Copyright (c) Steve Scherf et al.
# Submitted via: fre:ac v1.0.17
# 
DISCID=2a03f404
DTITLE=Vibeke Hastrup - Mini lydbog
DYEAR=2010
DGENRE=
TTITLE0=Alle vi børn i Bullerby 
TTITLE1=Brødre er anstrengende 
TTITLE2=Min bedste fødselsdag
TTITLE3=Flere dejlige ting
EXTD=
EXTT0=
EXTT1=
EXTT2=
EXTT3=
PLAYORDER=
